# Blender 3.5.1
# www.blender.org
mtllib NewArrow.mtl
o Cube
v -0.179877 0.001955 -0.412246
v 0.171493 0.001955 -0.412246
v 0.171493 -0.175685 -0.412246
v -0.179877 -0.175685 -0.412246
v -0.179877 -0.175685 0.498507
v 0.171493 -0.175685 0.498507
v 0.171493 0.001955 0.498507
v -0.179877 0.001955 0.498507
v -0.488333 -0.175685 0.506619
v 0.479949 -0.175685 0.506619
v 0.479949 0.001955 0.506619
v -0.488333 0.001955 0.506619
v -0.004192 -0.175685 0.905024
v -0.004192 -0.175685 0.905024
v -0.004192 0.001955 0.905024
v -0.004192 0.001955 0.905024
vn -0.0000 -0.0000 -1.0000
vn -0.0000 -1.0000 -0.0000
vn 1.0000 -0.0000 -0.0000
vn -0.0000 1.0000 -0.0000
vn 0.6354 -0.0000 0.7722
vn -0.6354 -0.0000 0.7722
vn -1.0000 -0.0000 -0.0000
vn -0.0263 -0.0000 -0.9997
vn 0.0263 -0.0000 -0.9997
vt 0.625000 0.250000
vt 0.875000 0.500000
vt 0.625000 1.000000
vt 0.875000 0.750000
vt 0.125000 0.750000
vt 0.375000 1.000000
vt 0.125000 0.500000
vt 0.375000 0.250000
vt 0.375000 0.250000
vt 0.125000 0.500000
vt 0.375000 1.000000
vt 0.125000 0.750000
vt 0.625000 1.000000
vt 0.875000 0.750000
vt 0.625000 0.250000
vt 0.875000 0.500000
vt 0.125000 0.500000
vt 0.375000 0.250000
vt 0.375000 1.000000
vt 0.125000 0.750000
vt 0.625000 1.000000
vt 0.875000 0.750000
vt 0.625000 0.250000
vt 0.875000 0.500000
vt 0.125000 0.500000
vt 0.375000 0.250000
vt 0.125000 0.750000
vt 0.375000 0.000000
vt 0.375000 1.000000
vt 0.875000 0.750000
vt 0.625000 0.000000
vt 0.625000 1.000000
vt 0.625000 0.250000
vt 0.875000 0.500000
s 0
usemtl Material
f 3/6/1 4/8/1 1/1/1
f 5/10/2 4/7/2 3/5/2
f 6/11/3 2/3/3 7/13/3
f 14/27/4 13/25/4 9/17/4
f 14/28/4 16/33/4 13/26/4
f 11/21/5 14/29/5 10/19/5
f 9/18/6 16/33/6 12/23/6
f 8/15/7 1/1/7 4/8/7
f 16/34/4 15/30/4 11/22/4
f 8/15/7 4/8/7 5/9/7
f 1/1/1 2/4/1 3/6/1
f 5/10/2 3/5/2 6/12/2
f 6/11/3 3/6/3 2/3/3
f 5/9/8 9/18/8 12/23/8
f 5/9/8 12/23/8 8/15/8
f 11/21/9 10/19/9 6/11/9
f 7/14/4 1/2/4 8/16/4
f 7/14/9 11/21/9 6/11/9
f 9/17/2 5/10/2 14/27/2
f 5/10/2 6/12/2 14/27/2
f 6/12/2 10/20/2 14/27/2
f 14/28/4 15/31/4 16/33/4
f 11/21/5 15/32/5 14/29/5
f 9/18/6 13/26/6 16/33/6
f 7/14/4 2/4/4 1/2/4
f 11/22/4 7/14/4 16/34/4
f 7/14/4 8/16/4 16/34/4
f 8/16/4 12/24/4 16/34/4
